<svg width="772" height="197" viewBox="0 0 772 197" fill="none" xmlns="http://www.w3.org/2000/svg">
<path d="M605.668 117.949H530.719C525.669 117.949 523.543 114.26 523.543 110.572C523.543 106.883 525.802 102.931 530.719 102.931H619.09C630.518 102.931 634.771 106.356 634.771 116.5V137.05H553.044C551.051 137.05 550.121 138.235 550.121 139.553V139.948C550.121 141.265 551.051 142.451 553.044 142.451H630.784C635.967 142.451 638.226 146.271 638.226 150.091C638.226 153.648 636.099 157.6 630.784 157.6H540.42C528.725 157.6 522.081 149.301 522.081 140.211V138.631C522.081 129.409 528.725 123.35 540.42 123.35H607.794V120.056C607.794 118.475 607.396 117.949 605.668 117.949ZM534.573 37.1965H581.615C587.728 37.1965 589.987 41.8072 589.987 46.0226C589.987 49.8429 587.595 54.0583 581.615 54.0583H546.931C544.672 54.0583 543.742 54.8487 543.742 56.8247V59.4593H576.3C582.014 59.4593 584.007 63.9382 584.007 67.495C584.007 71.1835 581.881 75.5307 576.3 75.5307H543.742V78.1653C543.742 80.4048 544.672 80.9317 546.931 80.9317H592.512C598.625 80.9317 601.017 85.1472 601.017 88.9674C601.017 93.1829 598.625 97.53 592.512 97.53H534.573C521.417 97.53 517.829 93.3146 517.829 81.1952V53.5314C517.829 41.412 521.417 37.1965 534.573 37.1965ZM608.326 98.7156V75.2672H597.828C590.12 75.2672 586.931 70.6566 586.931 65.519C586.931 60.5132 589.987 55.7708 597.828 55.7708H608.326V46.6813C608.326 38.2504 614.572 33.9032 621.482 33.9032C628.259 33.9032 634.771 38.3821 634.771 46.6813V98.7156H608.326Z" fill="#4971FF"/>
<path d="M719.686 67.6267H700.949V69.471C700.949 71.7104 700.816 73.8182 700.55 75.7942C720.882 76.1894 730.849 86.3328 730.583 109.913H705.733C706.398 99.2425 701.082 93.7098 693.507 93.9732C685.534 104.907 672.245 110.572 659.488 110.835C652.976 110.967 647.794 107.015 647.794 101.087C647.794 94.8954 651.116 91.6021 656.431 90.8117C668.657 88.9674 676.099 81.0635 676.099 69.471V67.6267H658.159C651.913 67.6267 648.458 61.9622 648.458 57.2199C648.458 52.4775 651.382 46.5495 658.159 46.5495H675.7V45.3639C675.7 37.46 680.351 33.7715 688.591 33.7715C696.83 33.7715 701.614 37.5917 701.614 45.3639V46.5495H719.686C726.464 46.5495 729.387 52.4775 729.387 57.2199C729.387 61.9622 725.932 67.6267 719.686 67.6267ZM759.952 157.6H676.099C661.215 157.6 657.229 152.462 657.229 138.367V128.619C657.229 119.661 663.475 116.104 670.916 116.104C678.358 116.104 684.205 119.793 684.205 128.619V133.888C684.205 136.786 684.87 137.182 687.793 137.182H759.952C768.058 137.182 771.114 142.056 771.114 147.325C771.114 152.726 767.925 157.6 759.952 157.6ZM740.816 127.697V46.9447C740.816 38.3821 747.194 33.9032 754.237 33.9032C761.148 33.9032 767.659 38.5138 767.659 46.9447V127.697H740.816Z" fill="#FFB800"/>
<path d="M527.142 196.528V190.699H539.107V188.74H527.016V186.805H541.556V192.587H529.591V194.593H542.212V196.528H527.142ZM533.428 181.07H525.906V183.076C527.117 183.076 528.177 183.068 529.086 183.053C530.012 183.037 530.853 183.013 531.61 182.982C532.368 182.95 533.066 182.903 533.705 182.84C534.362 182.777 535.026 182.706 535.699 182.628L535.927 184.469C535.119 184.563 534.32 184.642 533.529 184.705C532.738 184.768 531.863 184.823 530.903 184.87C529.944 184.917 528.867 184.948 527.672 184.964C526.478 184.98 525.073 184.988 523.457 184.988V175.335H533.983V177.247H525.906V179.159H533.428V181.07ZM539.082 185.696V180.74H534.892V178.734H539.082V174.627H541.556V185.696H539.082Z" fill="#7C99FF"/>
<path d="M567.332 175.43V177.412H554.887V180.881H567.483V182.864H561.198V185.106H570.613V187.088H549.258V185.106H558.674V182.864H552.414V175.43H567.332ZM559.936 197C558.825 197 557.816 196.898 556.907 196.693C556.015 196.505 555.249 196.229 554.61 195.867C553.987 195.521 553.508 195.104 553.171 194.617C552.834 194.145 552.666 193.633 552.666 193.083V192.28C552.666 191.714 552.834 191.195 553.171 190.723C553.508 190.235 553.987 189.818 554.61 189.472C555.249 189.126 556.015 188.858 556.907 188.669C557.816 188.465 558.825 188.363 559.936 188.363C561.047 188.363 562.048 188.465 562.94 188.669C563.832 188.858 564.589 189.133 565.212 189.495C565.851 189.841 566.339 190.251 566.676 190.723C567.029 191.195 567.206 191.714 567.206 192.28V193.083C567.206 193.633 567.037 194.145 566.701 194.617C566.364 195.089 565.876 195.498 565.237 195.844C564.614 196.206 563.848 196.489 562.94 196.693C562.048 196.898 561.047 197 559.936 197ZM559.936 190.274C559.229 190.274 558.581 190.337 557.992 190.463C557.403 190.573 556.898 190.73 556.478 190.935C556.057 191.124 555.729 191.352 555.493 191.619C555.258 191.871 555.14 192.139 555.14 192.422V192.941C555.14 193.224 555.258 193.492 555.493 193.743C555.729 194.011 556.057 194.239 556.478 194.428C556.898 194.632 557.403 194.79 557.992 194.9C558.581 195.026 559.229 195.089 559.936 195.089C560.643 195.089 561.291 195.026 561.88 194.9C562.469 194.79 562.973 194.632 563.394 194.428C563.815 194.239 564.143 194.011 564.379 193.743C564.614 193.492 564.732 193.224 564.732 192.941V192.422C564.732 192.139 564.614 191.871 564.379 191.619C564.143 191.352 563.815 191.124 563.394 190.935C562.973 190.73 562.469 190.573 561.88 190.463C561.291 190.337 560.643 190.274 559.936 190.274Z" fill="#7C99FF"/>
<path d="M579.452 196.528V191.124H592.225V189.519H579.326V187.607H585.813V185.554H576.398V183.619H597.753V185.554H588.337V187.607H594.673V192.988H581.901V194.617H595.355V196.528H579.452ZM594.648 182.132H579.503V175.123H594.648V182.132ZM592.199 177.058H581.951V180.197H592.199V177.058Z" fill="#7C99FF"/>
<path d="M611.236 183.383C611.152 183.588 610.95 183.871 610.63 184.233C610.31 184.579 609.949 184.909 609.545 185.224C609.006 185.664 608.392 186.136 607.702 186.64C607.029 187.128 606.339 187.6 605.632 188.056L604.168 186.38C604.976 185.845 605.741 185.318 606.465 184.799C607.189 184.28 607.778 183.816 608.232 183.407C608.535 183.123 608.796 182.848 609.015 182.581C609.233 182.313 609.402 182.038 609.519 181.755C609.654 181.456 609.747 181.141 609.797 180.811C609.864 180.464 609.898 180.079 609.898 179.654V179.088H604.824V177.082H609.898V174.486H612.422V177.082H617.193V179.088H612.422V179.56C612.422 179.937 612.439 180.276 612.473 180.575C612.506 180.874 612.565 181.149 612.649 181.401C612.75 181.652 612.885 181.896 613.053 182.132C613.222 182.352 613.449 182.581 613.735 182.817C614.324 183.32 614.955 183.808 615.628 184.28C616.301 184.752 617.016 185.216 617.774 185.672L616.36 187.371C615.704 186.947 615.081 186.53 614.492 186.121C613.903 185.696 613.306 185.247 612.7 184.775C612.313 184.476 611.993 184.217 611.741 183.997C611.505 183.761 611.345 183.556 611.261 183.383H611.236ZM610.782 194.121H623.302V196.151H608.283V189.118H610.782V194.121ZM620.348 190.227V174.627H622.822V190.227H620.348Z" fill="#7C99FF"/>
<path d="M652.031 185.767V187.749H642.616V196.387H640.092V187.749H630.676V185.767H645.569C645.838 184.602 646.023 183.501 646.124 182.463C646.242 181.408 646.301 180.354 646.301 179.3V178.026H633.352V175.973H648.8V178.757C648.8 179.89 648.741 181.047 648.623 182.227C648.506 183.407 648.329 184.587 648.093 185.767H652.031Z" fill="#7C99FF"/>
<path d="M660.87 196.528V191.077H673.642V189.425H660.744V187.513H676.091V192.941H663.318V194.617H676.772V196.528H660.87ZM679.17 183.879V185.814H657.816V183.879H679.17ZM675.889 175.194V177.153H663.445V180.221H676.04V182.179H660.971V175.194H675.889Z" fill="#7C99FF"/>
<path d="M706.108 174.911C707.218 174.911 708.228 175.005 709.137 175.194C710.062 175.367 710.853 175.627 711.51 175.973C712.166 176.303 712.671 176.712 713.024 177.2C713.394 177.688 713.579 178.238 713.579 178.852V179.513C713.579 180.173 713.377 180.756 712.974 181.259C712.587 181.762 712.031 182.179 711.308 182.51V185.389H716.785V187.371H695.43V185.389H700.933V182.533C700.193 182.187 699.621 181.762 699.217 181.259C698.83 180.756 698.636 180.173 698.636 179.513V178.852C698.636 178.238 698.813 177.688 699.166 177.2C699.536 176.712 700.05 176.303 700.706 175.973C701.362 175.627 702.145 175.367 703.053 175.194C703.979 175.005 704.997 174.911 706.108 174.911ZM706.108 197C704.913 197 703.853 196.89 702.927 196.67C702.019 196.449 701.253 196.151 700.63 195.773C700.008 195.411 699.536 194.994 699.217 194.522C698.914 194.066 698.762 193.594 698.762 193.106V192.304C698.762 191.832 698.914 191.36 699.217 190.888C699.536 190.416 700.008 189.999 700.63 189.637C701.253 189.275 702.019 188.984 702.927 188.764C703.853 188.528 704.913 188.41 706.108 188.41C707.303 188.41 708.354 188.528 709.263 188.764C710.189 188.984 710.954 189.275 711.56 189.637C712.183 189.999 712.654 190.416 712.974 190.888C713.293 191.36 713.453 191.832 713.453 192.304V193.106C713.453 193.578 713.293 194.05 712.974 194.522C712.654 194.994 712.183 195.411 711.56 195.773C710.954 196.135 710.189 196.426 709.263 196.646C708.354 196.882 707.303 197 706.108 197ZM706.108 181.519C706.831 181.519 707.504 181.471 708.127 181.377C708.75 181.267 709.28 181.125 709.717 180.952C710.155 180.763 710.5 180.543 710.752 180.291C711.005 180.024 711.131 179.733 711.131 179.418V178.946C711.131 178.632 711.005 178.348 710.752 178.097C710.5 177.829 710.155 177.609 709.717 177.436C709.28 177.247 708.75 177.105 708.127 177.011C707.504 176.901 706.831 176.846 706.108 176.846C705.367 176.846 704.686 176.901 704.063 177.011C703.457 177.105 702.936 177.247 702.498 177.436C702.061 177.609 701.716 177.829 701.463 178.097C701.211 178.348 701.085 178.632 701.085 178.946V179.418C701.085 179.733 701.211 180.024 701.463 180.291C701.716 180.543 702.061 180.763 702.498 180.952C702.936 181.125 703.457 181.267 704.063 181.377C704.686 181.471 705.367 181.519 706.108 181.519ZM706.108 190.321C705.35 190.321 704.669 190.392 704.063 190.534C703.457 190.66 702.944 190.825 702.523 191.029C702.119 191.234 701.8 191.47 701.564 191.737C701.345 191.989 701.236 192.241 701.236 192.493V192.917C701.236 193.169 701.345 193.421 701.564 193.673C701.8 193.94 702.119 194.176 702.523 194.381C702.944 194.585 703.457 194.75 704.063 194.876C704.669 195.018 705.35 195.089 706.108 195.089C706.865 195.089 707.547 195.018 708.152 194.876C708.758 194.75 709.263 194.585 709.667 194.381C710.088 194.176 710.407 193.94 710.626 193.673C710.862 193.421 710.979 193.169 710.979 192.917V192.493C710.979 192.241 710.862 191.989 710.626 191.737C710.407 191.47 710.088 191.234 709.667 191.029C709.263 190.825 708.758 190.66 708.152 190.534C707.547 190.392 706.865 190.321 706.108 190.321ZM706.108 183.454C705.62 183.454 705.149 183.446 704.694 183.43C704.24 183.399 703.811 183.344 703.407 183.265V185.389H708.834V183.241C707.992 183.383 707.084 183.454 706.108 183.454Z" fill="#7C99FF"/>
<path d="M743.924 184.61V186.593H734.509V189H740.87V196.363H725.624V189H731.985V186.593H722.57V184.61H743.924ZM724.993 181.141H728.123V177.389H725.119V175.477H741.375V177.389H738.371V181.141H741.501V183.053H724.993V181.141ZM738.396 190.959H728.098V194.404H738.396V190.959ZM730.571 181.141H735.923V177.389H730.571V181.141Z" fill="#7C99FF"/>
<path d="M767.833 186.852V196.387H753.647V186.852H756.12V189.613H765.359V186.852H767.833ZM756.272 181.495C756.221 181.684 756.045 181.943 755.742 182.274C755.439 182.588 755.052 182.942 754.581 183.336C754.042 183.776 753.419 184.264 752.713 184.799C752.023 185.334 751.324 185.83 750.618 186.286L749.179 184.634C749.986 184.067 750.761 183.509 751.501 182.958C752.241 182.408 752.839 181.936 753.293 181.542C753.916 181.007 754.345 180.48 754.581 179.961C754.816 179.426 754.934 178.742 754.934 177.908V175.501H757.458V177.813C757.458 178.175 757.475 178.506 757.509 178.805C757.542 179.088 757.601 179.355 757.685 179.607C757.786 179.843 757.921 180.079 758.089 180.315C758.257 180.535 758.485 180.763 758.771 180.999C759.36 181.503 759.999 181.991 760.689 182.463C761.396 182.935 762.111 183.399 762.835 183.855L761.396 185.554C760.756 185.114 760.134 184.689 759.528 184.28C758.922 183.855 758.325 183.407 757.736 182.935C757.399 182.667 757.088 182.408 756.802 182.156C756.533 181.888 756.364 181.668 756.297 181.495H756.272ZM771.114 179.253H767.833V181.117H771.114V183.123H767.833V185.79H765.384V174.627H767.833V177.247H771.114V179.253ZM765.359 194.404V191.572H756.12V194.404H765.359Z" fill="#7C99FF"/>
<path d="M51.0075 126.247C45.6368 122.126 40.9157 112.838 41.9103 107.196C7.59735 105.725 12.8187 102.045 11.3268 87.3275C9.83497 72.6099 32.5051 49.6284 57.1209 40.7979C76.8135 33.7334 91.639 44.1559 94.8714 52.7411C99.347 50.0429 111.394 49.7977 130.49 49.7977C149.586 49.7977 169.881 65.2905 176.346 69.9511C176.595 54.9882 179.609 12.2679 193.335 6.38082C207.06 0.493784 218.448 30.6646 222.426 44.6464C222.426 44.6464 241.82 48.3259 252.263 49.7977C262.706 51.2694 267.928 30.2062 276.879 28.7345C284.04 27.5571 302.987 61.8171 311.192 82.9123C312.684 77.2706 317.16 63.7794 323.127 54.9489C330.586 43.9107 335.808 65.2512 344.013 60.1C352.218 54.9489 368.629 69.6665 384.294 55.6848C399.958 41.7031 398.466 46.8543 410.401 53.4772C419.949 58.7755 426.812 79.7235 429.05 89.5352C447.698 98.3658 448.136 130.341 438.234 148.363C421.929 178.038 400.365 178.353 391.359 172.69C365.617 156.5 368.629 171.954 355.202 174.161C344.461 175.927 326.359 167.048 318.651 162.387C310.446 167.784 290.604 178.871 276.879 180.048C263.164 181.225 256.561 166.335 254.814 162.396L254.81 162.387C251.578 162.387 246.658 167.464 222.426 167.464C204.365 167.464 182.146 162.387 173.194 155.764C171.404 158.708 149.076 168.274 138.136 172.69C119.636 180.931 105.066 174.161 100.093 169.746C93.6282 169.501 80.5583 169.746 68.3308 162.387C55.273 154.529 50.7588 135.078 51.0075 126.247Z" fill="#FFB800"/>
<path opacity="0.9" d="M101.644 120.634C85.2901 120.634 82.9539 129.979 98.5288 136.987C114.104 143.996 134.351 120.634 101.644 120.634Z" fill="#4971FF"/>
<path d="M241.819 120.634C225.466 120.634 223.129 129.979 238.704 136.987C254.279 143.996 274.527 120.634 241.819 120.634Z" fill="#4971FF"/>
<path d="M384.14 131.538C372.689 131.538 371.053 138.129 381.959 143.072C392.864 148.016 407.042 131.538 384.14 131.538Z" fill="#4971FF"/>
<path fill-rule="evenodd" clip-rule="evenodd" d="M71.4293 32.7485C57.6505 28.3973 28.4998 37.0272 9.23659 74.7831C5.38336 82.3354 3.61816 87.9186 3.2606 92.0035C2.90765 96.0358 3.92825 98.4768 5.53741 100.029C7.21414 101.647 9.78771 102.555 13.0221 102.939C16.2343 103.321 19.88 103.162 23.4854 102.84C24.3633 102.761 25.1384 103.409 25.2168 104.287C25.2952 105.165 24.6471 105.94 23.7693 106.018C20.1064 106.346 16.1946 106.53 12.6456 106.109C9.11879 105.69 5.72753 104.648 3.32142 102.326C0.847735 99.9395 -0.332539 96.4522 0.0812174 91.7253C0.490365 87.0509 2.45945 81.0437 6.39369 73.3326C26.0679 34.7712 56.5768 24.7113 72.3904 29.7051C80.2556 32.1888 87.2609 39.1676 89.6705 45.9774C90.8852 49.4102 91.0107 53.051 89.1441 56.0525C87.595 58.5434 84.8546 60.3047 80.9384 61.1878C80.3506 63.0794 79.3585 64.9719 77.8654 66.7767C74.9447 70.3071 70.1888 73.4056 63.0295 75.5846C45.9408 80.7854 36.6114 98.1318 35.2584 112.99C34.7652 118.406 35.3529 123.302 36.8833 127.049C37.3945 123.453 38.4911 120.711 40.0317 118.713C43.4678 114.258 48.6881 113.972 53.0015 115.59C57.2442 117.181 61.1185 120.772 62.2089 124.875C62.7705 126.988 62.5856 129.245 61.2974 131.315C60.0298 133.351 57.7983 135.041 54.5747 136.288C50.6342 137.814 47.0888 138.188 43.9964 137.509C42.4973 137.18 41.1362 136.611 39.9156 135.839C40.075 137.794 40.3543 139.945 40.7737 142.309C44.8795 165.451 64.9711 175.489 83.0261 176.996C87.6556 177.382 92.0808 177.198 95.9942 176.549C91.7136 174.316 88.8819 171.642 87.2788 168.783C84.7034 164.188 85.4624 159.393 88.0512 155.92C90.6112 152.486 94.981 150.308 99.6897 150.801C104.454 151.299 109.256 154.484 112.808 161.159C114.46 164.265 114.646 167.288 113.465 169.999C112.313 172.64 109.966 174.753 107.007 176.346C106.654 176.536 106.29 176.72 105.916 176.897C123.877 181.707 145.756 173.104 161.649 160.607C163.838 158.886 165.902 157.1 167.815 155.276C164.088 149.228 162.22 142.684 161.748 136.693C161.416 132.475 161.774 128.496 162.688 125.122C163.596 121.772 165.087 118.899 167.121 117.034C169.216 115.112 171.886 114.284 174.799 115.17C177.593 116.02 180.364 118.374 183.025 122.21C186.904 127.803 185.864 135.042 182.155 142.135C179.791 146.656 176.267 151.287 171.927 155.705C173.017 157.234 174.246 158.717 175.623 160.133C182.507 167.207 193.205 172.695 209.07 173.703C231.593 175.133 247.346 174.545 257.225 172.021C255.713 168.213 255.228 164.112 255.436 160.381C255.605 157.353 256.232 154.498 257.19 152.151C258.13 149.849 259.47 147.84 261.2 146.771C262.094 146.219 263.116 145.904 264.216 145.983C265.313 146.061 266.343 146.52 267.274 147.271C269.082 148.731 270.66 151.407 272 155.308C273.489 159.644 273.491 163.607 271.503 166.969C269.684 170.044 266.366 172.326 261.773 173.974C262.314 174.836 262.932 175.657 263.63 176.425C267.519 180.702 274.178 183.595 285.095 182.277C301.778 180.264 314.158 172.94 321.919 164.884C320.665 163.611 319.517 162.308 318.49 160.996C314.698 156.157 312.326 150.926 312.605 146.443C312.748 144.146 313.593 142.039 315.29 140.378C316.966 138.737 319.355 137.646 322.395 137.121C325.433 136.598 328.042 136.836 330.108 137.865C332.213 138.912 333.58 140.695 334.234 142.885C335.504 147.137 334.11 152.88 330.759 158.582C329.563 160.617 328.098 162.683 326.369 164.722C333.894 171.466 344.509 176.814 355.374 176.814C362.495 176.814 367.164 176.285 370.592 175.637C372.831 175.214 374.455 174.766 375.983 174.345C376.876 174.099 377.735 173.862 378.665 173.644C383.664 172.474 388.479 172.58 402.565 176.884C429.434 185.094 455.015 164.34 455.015 134.8C455.015 128.971 454.816 118.85 452.158 109.641C450.174 102.768 446.903 96.6593 441.536 93.1012C442.577 96.2244 443.353 99.3456 443.621 102.212C444.041 106.704 443.247 111.096 439.587 113.543C437.819 114.725 435.958 115.126 434.137 114.832C432.353 114.545 430.747 113.614 429.381 112.378C426.668 109.922 424.615 106.01 423.633 102.091C422.661 98.2121 422.639 93.9082 424.528 90.7999C425.5 89.1999 426.959 87.9589 428.935 87.3179C430.859 86.6942 433.165 86.6717 435.844 87.2765C434.043 83.178 432.033 79.3409 430.402 76.4169C429.482 74.7673 428.686 73.4136 428.121 72.4741C427.839 72.0044 427.614 71.6385 427.461 71.3911C427.385 71.2675 427.326 71.1735 427.287 71.111L427.243 71.0411L427.232 71.0244L427.23 71.0206C426.757 70.2768 426.976 69.2899 427.72 68.8173C428.464 68.3446 429.45 68.5645 429.923 69.3083L428.576 70.1642C429.923 69.3083 429.923 69.3079 429.923 69.3083L429.925 69.3108L429.941 69.3369L429.99 69.4144C430.032 69.482 430.094 69.5814 430.174 69.7106C430.334 69.969 430.566 70.3468 430.856 70.8293C431.437 71.794 432.25 73.1781 433.19 74.8625C435.066 78.2268 437.454 82.8102 439.479 87.6547C439.606 87.9595 439.732 88.2658 439.857 88.5734C448.27 92.1875 452.791 100.33 455.224 108.756C458.017 118.433 458.207 128.948 458.207 134.8C458.207 166.182 430.833 188.859 401.632 179.936C387.683 175.674 383.543 175.78 379.392 176.752C378.687 176.916 377.916 177.128 377.065 177.361C375.433 177.807 373.506 178.335 371.184 178.773C367.53 179.464 362.659 180.006 355.374 180.006C343.57 180.006 332.238 174.267 324.229 167.087C315.955 175.68 302.892 183.344 285.478 185.446C273.811 186.854 266.022 183.799 261.269 178.573C260.242 177.443 259.369 176.226 258.635 174.95C248.212 177.757 231.813 178.344 208.868 176.888C192.324 175.837 180.845 170.076 173.336 162.358C171.964 160.948 170.728 159.477 169.62 157.962C167.739 159.732 165.731 161.457 163.621 163.116C147.356 175.905 124.378 185.204 104.979 179.95C103.567 179.568 102.24 179.153 100.998 178.71C95.7434 180.185 89.3727 180.728 82.7607 180.177C63.9388 178.606 42.0916 168.007 37.6312 142.866C36.9628 139.099 36.6218 135.761 36.5672 132.821C36.5347 132.78 36.5023 132.74 36.4701 132.699C32.7202 127.944 31.3666 120.534 32.08 112.7C33.5073 97.0276 43.3665 78.2329 62.1002 72.5313C68.8488 70.4774 72.9938 67.6584 75.4064 64.7422C76.222 63.7564 76.8489 62.7486 77.3148 61.7378C69.2633 62.5987 64.1133 62.2993 61.1386 61.1015C59.5373 60.4567 58.3347 59.4546 57.8512 58.0154C57.3797 56.612 57.7293 55.1917 58.3188 53.9953C59.4812 51.6363 61.9994 49.2711 64.4552 47.4577C66.9149 45.6415 69.6616 44.124 71.5228 43.6587C72.8022 43.3388 74.0869 43.6565 75.1887 44.2441C76.2973 44.8352 77.3364 45.7553 78.2317 46.8655C80.0219 49.0853 81.397 52.2626 81.5977 55.7829C81.6339 56.417 81.6318 57.0617 81.5874 57.7132C84.1003 56.9187 85.6057 55.6988 86.4339 54.3671C87.6092 52.4771 87.686 49.9365 86.6618 47.042C84.5937 41.1972 78.3603 34.9372 71.4293 32.7485ZM78.3056 58.4125C78.4269 57.5802 78.4567 56.7605 78.4113 55.9645C78.25 53.1355 77.1353 50.59 75.7474 48.869C75.0536 48.0088 74.3316 47.404 73.687 47.0602C73.0356 46.7128 72.5749 46.6854 72.2969 46.7549C71.043 47.0684 68.6982 48.292 66.351 50.0252C63.9999 51.7612 61.9959 53.7536 61.1817 55.4059C60.7829 56.2152 60.7808 56.714 60.8765 56.9989C60.9602 57.2481 61.244 57.7034 62.3307 58.141C64.6099 59.0587 69.3381 59.4497 77.9569 58.4552C78.0745 58.4417 78.1907 58.4274 78.3056 58.4125ZM437.401 91.0409C436.704 90.7942 435.979 90.5828 435.226 90.409C432.885 89.8689 431.162 89.951 429.92 90.3538C428.707 90.7471 427.851 91.4773 427.255 92.457C426.009 94.5078 425.848 97.7967 426.729 101.316C427.601 104.795 429.395 108.086 431.522 110.011C432.576 110.965 433.638 111.519 434.645 111.682C435.615 111.838 436.668 111.655 437.813 110.89C439.977 109.443 440.829 106.632 440.443 102.509C440.121 99.0596 438.952 95.0563 437.401 91.0409ZM324.059 162.51C325.616 160.658 326.934 158.792 328.007 156.965C331.178 151.569 332.072 146.799 331.176 143.799C330.747 142.363 329.918 141.335 328.686 140.722C327.414 140.089 325.546 139.817 322.938 140.267C320.332 140.716 318.608 141.596 317.522 142.659C316.457 143.702 315.891 145.033 315.79 146.642C315.583 149.97 317.396 154.425 321.002 159.028C321.923 160.203 322.946 161.369 324.059 162.51ZM260.3 171.108C264.754 169.576 267.422 167.601 268.756 165.344C270.115 163.046 270.28 160.127 268.981 156.345C267.707 152.634 266.374 150.647 265.269 149.754C264.742 149.329 264.315 149.189 263.989 149.166C263.665 149.143 263.3 149.225 262.878 149.486C261.976 150.043 260.972 151.332 260.145 153.357C259.336 155.337 258.774 157.839 258.623 160.559C258.429 164.033 258.909 167.748 260.3 171.108ZM170.146 152.96C174.071 148.886 177.219 144.686 179.327 140.656C182.821 133.974 183.274 128.169 180.402 124.028C177.932 120.467 175.682 118.775 173.87 118.224C172.176 117.708 170.654 118.124 169.278 119.386C167.842 120.704 166.583 122.952 165.769 125.957C164.961 128.938 164.623 132.546 164.93 136.443C165.349 141.766 166.964 147.56 170.146 152.96ZM101.107 175.348C102.734 174.837 104.208 174.228 105.494 173.536C108.088 172.139 109.774 170.479 110.539 168.724C111.274 167.038 111.258 165.04 109.99 162.658C106.809 156.68 102.822 154.337 99.3579 153.975C95.8381 153.607 92.54 155.238 90.61 157.827C88.7088 160.378 88.1554 163.819 90.0628 167.222C91.6424 170.04 95.0131 173.007 101.107 175.348ZM39.7522 131.612C41.1088 133.015 42.7484 133.968 44.6804 134.392C47.0144 134.904 49.9103 134.672 53.4226 133.312C56.2343 132.224 57.7991 130.895 58.5879 129.628C59.3561 128.394 59.4876 127.062 59.1244 125.695C58.3653 122.838 55.4256 119.907 51.8808 118.578C48.4067 117.275 44.8661 117.671 42.5589 120.662C40.9751 122.716 39.8035 126.177 39.7522 131.612Z" fill="#0057FF"/>
<path fill-rule="evenodd" clip-rule="evenodd" d="M218.667 25.258C214.164 13.0894 204.854 2.51234 192.71 3.22673C188.421 3.47897 184.853 7.19781 182.049 14.3158C179.29 21.323 177.535 31.0115 176.527 41.8672C174.515 63.5467 175.52 89.4127 177.073 106.621C177.152 107.499 176.505 108.275 175.627 108.354C174.749 108.433 173.973 107.786 173.894 106.908C172.332 89.5921 171.312 63.5156 173.349 41.5722C174.366 30.6166 176.155 20.5736 179.08 13.1463C181.961 5.82992 186.219 0.411461 192.522 0.0407013C206.855 -0.802405 217.014 11.5936 221.661 24.1503C223.354 28.7248 224.374 33.4519 224.616 37.7894C227.728 37.9567 231.239 38.5936 235.149 39.8281C238.469 40.8767 241.292 41.7919 243.708 42.5755C246.716 43.5508 249.095 44.3223 251.025 44.8938C252.755 45.4063 254.043 45.7325 255.034 45.8937C256.034 46.0565 256.602 46.0277 256.949 45.9378C257.466 45.8038 257.852 45.4674 258.747 43.6126C258.885 43.3269 259.031 43.0165 259.188 42.6821C259.986 40.9835 261.074 38.6642 262.921 35.8104C264.35 33.602 265.669 31.1204 267.009 28.6004C267.643 27.4091 268.28 26.2092 268.937 25.0255C270.901 21.4821 273.072 18.0028 275.688 16.1104C277.047 15.127 278.608 14.51 280.362 14.5957C282.102 14.6808 283.818 15.4467 285.521 16.8172C288.867 19.5107 292.547 24.8509 296.844 33.6402C305.451 51.2456 313.422 72.5742 317.29 89.551C317.434 90.1836 317.573 90.8109 317.705 91.4326C322.224 90.6711 327.627 91.2024 333.892 93.5518C334.717 93.8612 335.135 94.7811 334.826 95.6063C334.517 96.4315 333.597 96.8496 332.772 96.5401C326.978 94.3677 322.188 93.9357 318.335 94.5639C319.537 100.975 320.043 106.652 319.575 111.028C319.283 113.765 318.592 116.172 317.291 117.928C315.928 119.769 313.975 120.783 311.527 120.783C306.871 120.783 303.792 118.032 302.478 114.303C301.197 110.668 301.564 106.12 303.462 102.06C305.376 97.9672 308.892 94.264 314.048 92.3902C314.232 92.3234 314.418 92.259 314.605 92.1971C314.469 91.5593 314.327 90.9135 314.178 90.2599C310.377 73.5746 302.502 52.4802 293.977 35.042C289.708 26.3095 286.281 21.526 283.52 19.3036C282.169 18.2162 281.08 17.8262 280.206 17.7835C279.348 17.7415 278.487 18.0249 277.559 18.6963C275.599 20.1136 273.73 22.9616 271.728 26.573C271.133 27.6465 270.528 28.7843 269.911 29.9436C268.536 32.5283 267.104 35.2199 265.6 37.5442C263.881 40.2018 262.888 42.3145 262.092 44.0084C261.928 44.3565 261.773 44.6869 261.621 45.0007C260.789 46.7232 259.861 48.4798 257.75 49.0272C256.782 49.278 255.708 49.237 254.521 49.0438C253.324 48.8491 251.88 48.4756 250.119 47.9539C248.163 47.3748 245.716 46.5815 242.659 45.5905C240.238 44.8055 237.433 43.8965 234.188 42.8715C230.562 41.7266 227.394 41.1449 224.649 40.9761C224.628 41.5391 224.591 42.0922 224.539 42.634C224.02 48.0402 221.882 52.8434 217.309 54.5284C213.281 56.0122 209.869 55.5119 207.933 53.2214C206.053 50.9959 206.143 47.7295 207.669 44.9602C209.717 41.2435 214.303 38.171 221.419 37.7849C221.18 33.8701 220.248 29.5277 218.667 25.258ZM221.455 40.9682C215.29 41.3467 211.821 44.0387 210.465 46.5004C209.362 48.5008 209.599 50.2477 210.371 51.1615C211.088 52.0103 212.835 52.7755 216.205 51.5337C219.03 50.493 220.883 47.3141 221.362 42.3289C221.405 41.8853 221.436 41.4313 221.455 40.9682ZM315.235 95.3548C315.203 95.3664 315.171 95.3781 315.138 95.3898C310.852 96.9474 307.944 100.01 306.353 103.412C304.747 106.848 304.53 110.525 305.488 113.242C306.412 115.864 308.396 117.591 311.527 117.591C312.973 117.591 313.971 117.049 314.726 116.029C315.544 114.925 316.137 113.167 316.402 110.688C316.82 106.779 316.379 101.52 315.235 95.3548ZM391.065 55.9975C386.206 59.0751 379.463 61.0731 369.236 60.0704C363.68 59.5257 359.12 59.6226 355.429 60.1343C356.702 61.6805 357.653 63.3378 358.052 65.0385C358.389 66.4773 358.332 67.9625 357.718 69.3858C357.108 70.7982 356.005 72.0217 354.464 73.0487C350.091 75.9644 345.974 76.4868 342.931 75.1686C339.849 73.8331 338.231 70.7289 338.894 67.4167C339.549 64.1472 342.324 61.0051 347.256 58.9666C347.764 58.7568 348.295 58.5579 348.852 58.3709C346.788 56.8482 344.401 55.4842 341.977 54.4333C338.838 53.0727 335.761 52.2906 333.332 52.2906C330.037 52.2906 327.553 55.0798 325.715 59.4861C323.931 63.7603 323.077 68.844 322.693 71.9189C322.583 72.7934 321.786 73.4137 320.911 73.3044C320.037 73.1951 319.416 72.3976 319.526 71.5231C319.92 68.368 320.816 62.9385 322.769 58.2572C324.667 53.7079 327.905 49.099 333.332 49.099C336.354 49.099 339.881 50.0465 343.246 51.505C346.628 52.971 349.971 55.0074 352.631 57.304C352.652 57.3224 352.673 57.3408 352.695 57.3592C357.105 56.4786 362.669 56.2198 369.547 56.8941C379.178 57.8383 385.187 55.9426 389.357 53.3013C392.63 51.2278 394.805 48.7077 396.832 46.3586C397.456 45.6355 398.066 44.9286 398.69 44.2559C399.963 42.8832 401.364 41.5916 403.081 40.9136C404.885 40.201 406.846 40.2351 409.076 41.1199C411.244 41.9805 413.704 43.6572 416.648 46.2691C419.606 48.8937 423.134 52.5377 427.438 57.4281C428.02 58.0897 427.956 59.098 427.294 59.6802C426.633 60.2625 425.624 60.1981 425.042 59.5365C420.779 54.6925 417.348 51.1574 414.529 48.6563C411.696 46.1425 409.562 44.7467 407.898 44.0864C406.295 43.4501 405.183 43.5147 404.253 43.882C403.236 44.2839 402.239 45.1217 401.03 46.4259C400.528 46.9677 399.998 47.5835 399.427 48.2465C397.368 50.638 394.782 53.643 391.065 55.9975ZM351.758 60.8421C350.537 61.1524 349.445 61.5151 348.475 61.9161C344.164 63.6983 342.402 66.1534 342.024 68.0431C341.654 69.8901 342.508 71.507 344.2 72.2401C345.932 72.9904 348.891 72.9288 352.694 70.3932C353.85 69.6229 354.477 68.8413 354.788 68.1209C355.094 67.4114 355.148 66.6361 354.945 65.7667C354.594 64.2705 353.489 62.5661 351.758 60.8421ZM119.568 44.3416C106.918 45.4145 95.9342 49.0961 89.7443 52.1279C88.9529 52.5156 87.997 52.1882 87.6093 51.3967C87.2217 50.6052 87.549 49.6494 88.3405 49.2617C94.8702 46.0635 106.237 42.2692 119.298 41.1615C132.366 40.0533 147.253 41.6254 160.7 49.3093C161.465 49.7465 161.731 50.7213 161.294 51.4865C160.857 52.2517 159.882 52.5176 159.117 52.0803C146.398 44.8122 132.212 43.2694 119.568 44.3416Z" fill="#0057FF"/>
</svg>
